<mxfile host="65bd71144e">
    <diagram id="oOvjkwU3Ybch43xFya5B" name="Page-1">
        <mxGraphModel dx="1725" dy="1150" grid="1" gridSize="10" guides="1" tooltips="1" connect="1" arrows="1" fold="1" page="1" pageScale="1" pageWidth="850" pageHeight="1100" math="0" shadow="0">
            <root>
                <mxCell id="0"/>
                <mxCell id="1" parent="0"/>
                <mxCell id="2" value="" style="rounded=0;whiteSpace=wrap;html=1;" vertex="1" parent="1">
                    <mxGeometry x="105" y="260" width="240" height="280" as="geometry"/>
                </mxCell>
                <mxCell id="3" value="&lt;font style=&quot;font-size: 20px&quot;&gt;Webpage&lt;/font&gt;" style="text;html=1;strokeColor=none;fillColor=none;align=center;verticalAlign=middle;whiteSpace=wrap;rounded=0;" vertex="1" parent="1">
                    <mxGeometry x="175" y="260" width="100" height="30" as="geometry"/>
                </mxCell>
                <mxCell id="4" value="" style="shape=cylinder3;whiteSpace=wrap;html=1;boundedLbl=1;backgroundOutline=1;size=15;fontSize=20;" vertex="1" parent="1">
                    <mxGeometry x="505" y="220" width="80" height="110" as="geometry"/>
                </mxCell>
                <mxCell id="5" value="Accounts" style="text;html=1;strokeColor=none;fillColor=none;align=center;verticalAlign=middle;whiteSpace=wrap;rounded=0;fontSize=20;" vertex="1" parent="1">
                    <mxGeometry x="595" y="240" width="100" height="30" as="geometry"/>
                </mxCell>
                <mxCell id="6" value="" style="shape=cylinder3;whiteSpace=wrap;html=1;boundedLbl=1;backgroundOutline=1;size=15;fontSize=20;" vertex="1" parent="1">
                    <mxGeometry x="585" y="430" width="80" height="110" as="geometry"/>
                </mxCell>
                <mxCell id="7" value="Notes" style="text;html=1;strokeColor=none;fillColor=none;align=center;verticalAlign=middle;whiteSpace=wrap;rounded=0;fontSize=20;" vertex="1" parent="1">
                    <mxGeometry x="675" y="450" width="70" height="30" as="geometry"/>
                </mxCell>
                <mxCell id="8" value="" style="endArrow=classic;html=1;fontSize=20;exitX=0.5;exitY=1;exitDx=0;exitDy=0;exitPerimeter=0;entryX=0.5;entryY=0;entryDx=0;entryDy=0;entryPerimeter=0;" edge="1" parent="1" source="4" target="6">
                    <mxGeometry width="50" height="50" relative="1" as="geometry">
                        <mxPoint x="465" y="470" as="sourcePoint"/>
                        <mxPoint x="515" y="420" as="targetPoint"/>
                    </mxGeometry>
                </mxCell>
                <mxCell id="9" value="" style="endArrow=classic;html=1;fontSize=20;exitX=1.001;exitY=0.139;exitDx=0;exitDy=0;exitPerimeter=0;entryX=0;entryY=0.5;entryDx=0;entryDy=0;entryPerimeter=0;" edge="1" parent="1" source="2" target="4">
                    <mxGeometry width="50" height="50" relative="1" as="geometry">
                        <mxPoint x="475" y="410" as="sourcePoint"/>
                        <mxPoint x="525" y="360" as="targetPoint"/>
                    </mxGeometry>
                </mxCell>
                <mxCell id="10" value="" style="endArrow=classic;html=1;fontSize=20;entryX=0.996;entryY=0.886;entryDx=0;entryDy=0;exitX=0;exitY=0.5;exitDx=0;exitDy=0;exitPerimeter=0;entryPerimeter=0;" edge="1" parent="1" source="6" target="2">
                    <mxGeometry width="50" height="50" relative="1" as="geometry">
                        <mxPoint x="300" y="570" as="sourcePoint"/>
                        <mxPoint x="350" y="520" as="targetPoint"/>
                    </mxGeometry>
                </mxCell>
                <mxCell id="15" value="marketing site" style="rounded=0;whiteSpace=wrap;html=1;fontSize=20;fillColor=none;" vertex="1" parent="1">
                    <mxGeometry x="80" y="640" width="160" height="40" as="geometry"/>
                </mxCell>
                <mxCell id="17" value="marketing site" style="rounded=0;whiteSpace=wrap;html=1;fontSize=20;fillColor=none;" vertex="1" parent="1">
                    <mxGeometry x="520" y="640" width="160" height="40" as="geometry"/>
                </mxCell>
                <mxCell id="18" value="about" style="rounded=0;whiteSpace=wrap;html=1;fontSize=20;fillColor=none;" vertex="1" parent="1">
                    <mxGeometry x="105" y="710" width="120" height="30" as="geometry"/>
                </mxCell>
                <mxCell id="19" value="home" style="rounded=0;whiteSpace=wrap;html=1;fontSize=20;fillColor=none;" vertex="1" parent="1">
                    <mxGeometry x="105" y="770" width="120" height="30" as="geometry"/>
                </mxCell>
                <mxCell id="20" value="sign in" style="rounded=0;whiteSpace=wrap;html=1;fontSize=20;fillColor=none;" vertex="1" parent="1">
                    <mxGeometry x="105" y="830" width="120" height="30" as="geometry"/>
                </mxCell>
                <mxCell id="21" value="notes" style="rounded=0;whiteSpace=wrap;html=1;fontSize=20;fillColor=none;" vertex="1" parent="1">
                    <mxGeometry x="540" y="710" width="120" height="30" as="geometry"/>
                </mxCell>
                <mxCell id="22" value="profile" style="rounded=0;whiteSpace=wrap;html=1;fontSize=20;fillColor=none;" vertex="1" parent="1">
                    <mxGeometry x="540" y="770" width="120" height="30" as="geometry"/>
                </mxCell>
            </root>
        </mxGraphModel>
    </diagram>
</mxfile>